<svg id="visual" viewBox="0 0 1920 1080" width="1920" height="1080" xmlns="http://www.w3.org/2000/svg" xmlns:xlink="http://www.w3.org/1999/xlink" version="1.1"><rect x="0" y="0" width="1920" height="1080" fill="#ffffff"></rect><defs><linearGradient id="grad1_0" x1="43.8%" y1="100%" x2="100%" y2="0%"><stop offset="14.444444444444446%" stop-color="#9caed5" stop-opacity="1"></stop><stop offset="85.55555555555554%" stop-color="#9caed5" stop-opacity="1"></stop></linearGradient></defs><defs><linearGradient id="grad1_1" x1="43.8%" y1="100%" x2="100%" y2="0%"><stop offset="14.444444444444446%" stop-color="#9caed5" stop-opacity="1"></stop><stop offset="85.55555555555554%" stop-color="#ced6ea" stop-opacity="1"></stop></linearGradient></defs><defs><linearGradient id="grad1_2" x1="43.8%" y1="100%" x2="100%" y2="0%"><stop offset="14.444444444444446%" stop-color="#ffffff" stop-opacity="1"></stop><stop offset="85.55555555555554%" stop-color="#ced6ea" stop-opacity="1"></stop></linearGradient></defs><defs><linearGradient id="grad2_0" x1="0%" y1="100%" x2="56.3%" y2="0%"><stop offset="14.444444444444446%" stop-color="#9caed5" stop-opacity="1"></stop><stop offset="85.55555555555554%" stop-color="#9caed5" stop-opacity="1"></stop></linearGradient></defs><defs><linearGradient id="grad2_1" x1="0%" y1="100%" x2="56.3%" y2="0%"><stop offset="14.444444444444446%" stop-color="#ced6ea" stop-opacity="1"></stop><stop offset="85.55555555555554%" stop-color="#9caed5" stop-opacity="1"></stop></linearGradient></defs><defs><linearGradient id="grad2_2" x1="0%" y1="100%" x2="56.3%" y2="0%"><stop offset="14.444444444444446%" stop-color="#ced6ea" stop-opacity="1"></stop><stop offset="85.55555555555554%" stop-color="#ffffff" stop-opacity="1"></stop></linearGradient></defs><g transform="translate(1920, 1080)"><path d="M-540 0C-507.1 -60.4 -474.2 -120.8 -452.7 -187.5C-431.2 -254.2 -421.1 -327.2 -381.8 -381.8C-342.5 -436.5 -274 -472.8 -205.5 -496.1C-137 -519.4 -68.5 -529.7 0 -540L0 0Z" fill="#e6eaf5"></path><path d="M-360 0C-338.1 -40.3 -316.1 -80.5 -301.8 -125C-287.5 -169.5 -280.8 -218.1 -254.6 -254.6C-228.4 -291 -182.7 -315.2 -137 -330.7C-91.3 -346.3 -45.7 -353.1 0 -360L0 0Z" fill="#b5c2e0"></path><path d="M-180 0C-169 -20.1 -158.1 -40.3 -150.9 -62.5C-143.7 -84.7 -140.4 -109.1 -127.3 -127.3C-114.2 -145.5 -91.3 -157.6 -68.5 -165.4C-45.7 -173.1 -22.8 -176.6 0 -180L0 0Z" fill="#9caed5"></path></g><g transform="translate(0, 0)"><path d="M540 0C534.8 73.5 529.7 146.9 498.9 206.6C468.1 266.4 411.7 312.4 359.9 359.9C308.1 407.5 260.9 456.6 201.7 486.9C142.5 517.2 71.2 528.6 0 540L0 0Z" fill="#e6eaf5"></path><path d="M360 0C356.6 49 353.1 98 332.6 137.8C312.1 177.6 274.5 208.2 239.9 239.9C205.4 271.7 173.9 304.4 134.4 324.6C95 344.8 47.5 352.4 0 360L0 0Z" fill="#b5c2e0"></path><path d="M180 0C178.3 24.5 176.6 49 166.3 68.9C156 88.8 137.2 104.1 120 120C102.7 135.8 87 152.2 67.2 162.3C47.5 172.4 23.7 176.2 0 180L0 0Z" fill="#9caed5"></path></g></svg>